<svg viewBox="0 0 512 512" xmlns="http://www.w3.org/2000/svg">
  <path d="m111.65 475.04c-8.207-1.5625-21.086-8.3203-28.461-15.082-14.539-13.102-18.59-23.605-25.445-64.785-5.918-35.98-33.859-213.5-35.414-224.93-3.8438-29.324-0.41797-45.34 12.773-61.355 10.281-12.48 22.02-18.719 43.309-23.086 12.777-2.6016 11.738-1.6641 14.023-13.312 3.5312-17.781 20.668-37.02 38.637-43.363 13.398-4.6797 13.812-4.6797 156.62-4.6797 123.08 0 136.37 0.20703 144.37 1.7695 12.98 2.5977 22.641 7.7969 32.094 17.367 9.6562 9.668 13.914 16.742 16.926 28.18l2.3906 8.8398v140.39c0 133.01-0.10547 140.8-1.9727 148.71-3.5312 15.492-12.152 28.285-25.238 37.645-6.4414 4.5742-17.969 9.6719-22.02 9.6719-1.0391 0-3.5312 1.4531-5.4023 3.1172-8.1016 7.1758-19.211 11.754-37.805 15.496-5.7109 1.1445-35.832 6.0312-66.992 11.023-31.156 4.8867-81.633 12.895-112.17 17.781-77.898 12.273-86.52 13.207-100.23 10.609z" fill="#03d281"/>
  <path d="m163.06 419.09c-8.8281-0.51953-19.316-1.6641-23.367-2.5977-14.438-3.4336-28.25-13.105-37.184-25.793-6.6484-9.5664-9.0352-15.598-11.738-30.363-0.93359-5.3047-1.4531-252.39-0.51563-265.91 0.41406-5.5117 0.93359-10.402 1.2461-10.711 0.51953-0.52344 179.16-29.121 224.75-35.984 8.8281-1.3516 19.84-2.2852 28.043-2.2852 12.051-0.10547 14.332 0.20703 21.086 2.5977 21.707 7.8008 36.871 24.023 42.688 45.551 3.5312 13.207 4.7773 20.59 22.328 131.76 20.566 129.99 20.461 128.95 20.461 143.3-0.10156 13.625-1.7656 20.695-7.375 31.613-5.7109 11.023-11.527 16.535-18.797 17.887-6.75 1.3555-236.91 2.1875-261.63 0.9375zm121.52-72.066c43.621-10.504 72.078-34.629 84.648-71.336 7.6836-22.777 8.7227-53.973 2.4922-79.035-9.2461-37.02-34.277-63.02-73.121-75.914-18.797-6.1367-27.938-7.3828-56.5-7.3828-22.434 0-24.926 0.20703-29.184 2.1836-5.6094 2.5977-37.184 33.379-41.34 40.453l-2.8008 4.6797v142.47l2.8008 4.6797c1.5586 2.5977 10.699 12.477 20.254 21.941 13.605 13.414 18.488 17.68 22.125 18.926 3.9453 1.457 8.8281 1.6641 32.195 1.3516 25.238-0.3125 28.457-0.51953 38.43-3.0156z" fill="#fefffe"/>
  <path d="m212.92 231.8v-73.938l28.352 0.41406 28.25 0.3125 10.387 3.6406c12.465 4.3672 20.152 9.3594 28.25 17.992 7.2734 7.9023 12.051 16.535 15.062 27.453 3.0117 11.023 3.2188 36.918 0.41406 47.109-5.6094 19.758-17.137 34.316-33.859 42.426-15.059 7.3828-21.5 8.5273-51.098 8.5273h-25.758z" fill="#fefffe"/>
</svg>