<svg viewBox="0 0 512 512" xmlns="http://www.w3.org/2000/svg">
  <path d="m54.4 484.82-52.66 25.85 25.57-53.03 27.09 27.18zm260.07-376.3c-9.73 9.76 2.21 37.57 26.68 62.12 24.46 24.54 52.18 36.53 61.91 26.76l-231.03 231.8c-9.73 9.76-37.45-2.22-61.91-26.76-24.47-24.55-36.41-52.36-26.68-62.12l231.03-231.8zm102.7-103.75c-9.88 9.91 2.29 38.19 27.18 63.16 24.88 24.97 53.07 37.17 62.95 27.26l-54.17 54.35c-9.88 9.91-38.06-2.3-62.95-27.27s-37.05-53.25-27.18-63.16l54.17-54.34zm0 0c9.88-9.91 38.06 2.29 62.95 27.26s37.05 53.25 27.18 63.16c-9.88 9.91-38.07-2.29-62.95-27.26-24.89-24.97-37.06-53.25-27.18-63.16z"/>
</svg>