<svg viewBox="0 0 512 512" xmlns="http://www.w3.org/2000/svg">
  <defs>
    <radialGradient id="background" cx="0" cy="0" r="1" gradientUnits="userSpaceOnUse" gradientTransform="rotate(45) scale(724.077)">
      <stop stop-color="#2a2a2a" offset="0"/>
      <stop stop-color="#121212" offset="1"/>
    </radialGradient>
    <linearGradient id="wood" x1="56.541" y1="396.648" x2="114.091" y2="454.796" gradientUnits="userSpaceOnUse">
      <stop stop-color="#e5cfad" offset="0"/>
      <stop stop-color="#dec196" offset="0.25"/>
      <stop stop-color="#daba8a" offset="0.5"/>
      <stop stop-color="#c4a77c" offset="0.75"/>
      <stop stop-color="#988260" offset="1"/>
    </linearGradient>
    <linearGradient id="paint" x1="125.073" y1="326.053" x2="184.448" y2="385.823" gradientUnits="userSpaceOnUse">
      <stop stop-color="#f3ac4d" offset="0"/>
      <stop stop-color="#f0941a" offset="0.25"/>
      <stop stop-color="#ee8800" offset="0.5"/>
      <stop stop-color="#d67a00" offset="0.75"/>
      <stop stop-color="#a65f00" offset="1"/>
    </linearGradient>
    <linearGradient id="metal" x1="278.834" y1="172.774" x2="338.16" y2="232.493" gradientUnits="userSpaceOnUse">
      <stop stop-color="#d5d5d5" offset="0"/>
      <stop stop-color="#c9c9c9" offset="0.25"/>
      <stop stop-color="#c3c3c3" offset="0.5"/>
      <stop stop-color="#afafaf" offset="0.75"/>
      <stop stop-color="#888888" offset="1"/>
    </linearGradient>
    <linearGradient id="eraser" x1="314.623" y1="136.43" x2="374.506" y2="196.711" gradientUnits="userSpaceOnUse">
      <stop stop-color="#db7c88" offset="0"/>
      <stop stop-color="#d15766" offset="0.25"/>
      <stop stop-color="#cc4455" offset="0.5"/>
      <stop stop-color="#b73d4c" offset="0.75"/>
      <stop stop-color="#8e2f3b" offset="1"/>
    </linearGradient>
  </defs>
  <rect width="512" height="512" fill="url(#background)"/>
  <path d="M195.24 374.87L117.21 411.39L100.61 394.13L135.8 317.43L195.24 374.87Z" fill="url(#wood)"/>
  <path d="M120.86 409.73L86 426L102.27 390.47C104.99 395.27 106.03 398.17 109.91 402.09C113.62 405.86 120.86 409.73 120.86 409.73Z" fill="#2a2a2a"/>
  <path d="M291.29 161.04C284.81 167.52 292.76 185.98 309.06 202.28C325.35 218.57 343.82 226.53 350.3 220.05L196.41 373.94C189.93 380.42 171.46 372.46 155.17 356.17C138.87 339.87 130.92 321.41 137.4 314.93L291.29 161.04Z" fill="url(#paint)"/>
  <path d="M327.42 124.52C320.89 131.04 328.9 149.63 345.31 166.03C361.71 182.43 380.3 190.44 386.82 183.92L350.21 220.53C343.69 227.05 325.1 219.04 308.7 202.64C292.3 186.23 284.29 167.65 290.81 161.12L327.42 124.52Z" fill="url(#metal)"/>
  <path d="M362.91 88.66C356.34 95.23 364.24 113.98 380.8 130.54C397.36 147.1 416.11 155.19 422.68 148.62L386.64 184.65C380.07 191.23 361.32 183.13 344.76 166.57C328.2 150.02 320.11 131.27 326.68 124.69L362.91 88.66Z" fill="url(#eraser)"/>
  <path d="M362.54 88.95C369.1 82.37 387.81 90.48 404.34 107.06C420.87 123.64 428.95 142.42 422.38 149C415.82 155.58 397.11 147.47 380.58 130.89C364.05 114.31 355.98 95.53 362.54 88.95Z" fill="#db7c88"/>
</svg>