<svg viewBox="0 0 512 512" xmlns="http://www.w3.org/2000/svg">
  <defs>
    <radialGradient id="background" cx="0" cy="0" r="1" gradientUnits="userSpaceOnUse" gradientTransform="rotate(45) scale(724.077)">
      <stop stop-color="#2a2a2a" offset="0"/>
      <stop stop-color="#121212" offset="1"/>
    </radialGradient>
    <linearGradient id="wood" x1="92.739" y1="371.281" x2="140.134" y2="419.167" gradientUnits="userSpaceOnUse">
      <stop stop-color="#e5cfad" offset="0"/>
      <stop stop-color="#dec196" offset="0.25"/>
      <stop stop-color="#daba8a" offset="0.5"/>
      <stop stop-color="#c4a77c" offset="0.75"/>
      <stop stop-color="#988260" offset="1"/>
    </linearGradient>
    <linearGradient id="paint" x1="149.177" y1="313.144" x2="198.075" y2="362.366" gradientUnits="userSpaceOnUse">
      <stop stop-color="#f3ac4d" offset="0"/>
      <stop stop-color="#f0941a" offset="0.25"/>
      <stop stop-color="#ee8800" offset="0.5"/>
      <stop stop-color="#d67a00" offset="0.75"/>
      <stop stop-color="#a65f00" offset="1"/>
    </linearGradient>
    <linearGradient id="metal" x1="275.805" y1="186.914" x2="324.661" y2="236.094" gradientUnits="userSpaceOnUse">
      <stop stop-color="#d5d5d5" offset="0"/>
      <stop stop-color="#c9c9c9" offset="0.25"/>
      <stop stop-color="#c3c3c3" offset="0.5"/>
      <stop stop-color="#afafaf" offset="0.75"/>
      <stop stop-color="#888888" offset="1"/>
    </linearGradient>
    <linearGradient id="eraser" x1="305.278" y1="156.984" x2="354.593" y2="206.627" gradientUnits="userSpaceOnUse">
      <stop stop-color="#db7c88" offset="0"/>
      <stop stop-color="#d15766" offset="0.25"/>
      <stop stop-color="#cc4455" offset="0.5"/>
      <stop stop-color="#b73d4c" offset="0.75"/>
      <stop stop-color="#8e2f3b" offset="1"/>
    </linearGradient>
  </defs>
  <rect width="512" height="512" fill="url(#background)"/>
  <path d="M206.96 353.343L142.7 383.423L129.03 369.203L158.02 306.043L206.96 353.343Z" fill="url(#wood)"/>
  <path d="M145.71 382.053L117 395.453L130.4 366.193C132.64 370.143 133.5 372.533 136.69 375.763C139.75 378.863 145.71 382.053 145.71 382.053Z" fill="#2a2a2a"/>
  <path d="M286.06 177.253C280.72 182.583 287.27 197.793 300.69 211.213C314.11 224.633 329.32 231.183 334.66 225.843L207.92 352.583C202.59 357.913 187.38 351.363 173.96 337.943C160.54 324.523 153.99 309.323 159.33 303.983L286.06 177.253Z" fill="url(#paint)"/>
  <path d="M315.82 147.173C310.44 152.543 317.04 167.853 330.55 181.363C344.06 194.873 359.36 201.463 364.73 196.093L334.59 226.243C329.21 231.613 313.91 225.013 300.4 211.503C286.89 198.003 280.3 182.693 285.67 177.323L315.82 147.173Z" fill="url(#metal)"/>
  <path d="M345.05 117.643C339.63 123.053 346.14 138.493 359.78 152.133C373.41 165.763 388.85 172.433 394.27 167.023L364.59 196.693C359.18 202.113 343.73 195.443 330.1 181.803C316.46 168.173 309.8 152.733 315.21 147.313L345.05 117.643Z" fill="url(#eraser)"/>
  <path d="M344.74 117.883C350.14 112.463 365.55 119.143 379.16 132.793C392.77 146.453 399.43 161.913 394.02 167.333C388.62 172.753 373.21 166.083 359.6 152.423C345.99 138.773 339.33 123.303 344.74 117.883Z" fill="#db7c88"/>
</svg>