<svg width="700pt" height="700pt" viewBox="0 0 700 700" xmlns="http://www.w3.org/2000/svg">
  <g transform="translate(0 700) scale(.1 -.1)">
    <path d="m5765 6968c-39-13-812-781-831-825-19-43-18-137 2-204 61-206 207-423 430-640 125-121 168-156 281-231l81-55-705-705-34 17c-248 128-571 464-714 743l-38 72-1546-1542c-850-849-1548-1549-1549-1556-2-7 12-47 32-88 103-218 319-472 551-649 50-38 94-72 100-77s-112-130-295-314l-305-305 75 34c41 19 267 127 502 241 234 113 438 206 453 206 14 0 38 6 53 14s725 711 1577 1563c853 853 1708 1705 1900 1895 1014 999 1165 1152 1181 1195 71 186-170 610-515 906-270 232-545 354-686 305z"/>
    <path d="m301 598c-37-79-114-238-169-354-56-116-102-214-102-217 0-5 245 112 593 284l128 63-183 183c-100 101-186 183-191 183-4 0-38-64-76-142z"/>
  </g>
</svg>