<svg viewBox="0 0 512 512" xmlns="http://www.w3.org/2000/svg">
  <path d="m479.99 256.5c0 123.18-100.23 223.49-223.49 223.49-123.06 0-223.5-100.12-223.5-223.49 0-123.17 100.22-223.5 223.49-223.5h0.01c123.19 0 223.49 100.26 223.49 223.5zm-396.18 93.09h86.27c-7.98-25.5-12.67-52.16-13.85-79.45h-95.47c1.97 28.59 10.09 55.51 23.05 79.45zm-23.05-106.73h95.47c1.18-27.29 5.87-53.95 13.85-79.46h-86.27c-12.96 23.95-21.08 50.87-23.05 79.46zm391.47 0c-1.97-28.59-10.09-55.51-23.05-79.46h-86.27c7.98 25.51 12.67 52.17 13.84 79.46h95.48zm-122.78 0c-1.29-27.41-6.48-54.1-15.28-79.46h-44.03v79.46h59.31zm-26.38-106.73c-8.88-18.9-19.9-36.84-32.93-53.53v53.53h32.93zm-60.22-53.53c-13.03 16.69-24.05 34.63-32.93 53.53h32.93v-53.53zm-44.03 80.81c-8.8 25.35-13.99 52.05-15.28 79.46h59.31v-79.46h-44.03zm-15.28 106.73c1.29 27.41 6.48 54.11 15.28 79.46h44.03v-79.46h-59.31zm26.38 106.74c8.88 18.89 19.9 36.84 32.93 53.52v-53.52h-32.93zm60.22 53.52c13.03-16.68 24.05-34.62 32.93-53.52h-32.93v53.52zm0-80.81h44.03c8.8-25.35 13.99-52.04 15.28-79.45h-59.31v79.45zm72.77 0h86.27c12.96-23.94 21.08-50.86 23.05-79.45h-95.48c-1.17 27.29-5.86 53.95-13.84 79.45zm68.42-213.47c-29.51-37.88-72.6-64.68-121.88-73.05 17.93 22.42 32.52 46.98 43.49 73.05h78.39zm-187.79-73.05c-49.28 8.37-92.37 35.17-121.88 73.05h78.4c10.96-26.07 25.55-50.62 43.49-73.05h-0.01zm-121.87 313.81c29.51 37.88 72.59 64.68 121.88 73.05-17.94-22.42-32.52-46.98-43.49-73.05h-78.39zm187.79 73.05c49.28-8.37 92.36-35.17 121.88-73.05h-78.4c-10.97 26.07-25.55 50.62-43.49 73.05h0.01z" fill="#2175aa"/>
</svg>