<svg viewBox="0 0 512 512" xmlns="http://www.w3.org/2000/svg">
  <path d="m191.55 67.565 16.891-67.565h95.122l16.912 67.627c7.911 2.7125 15.648 5.9079 23.148 9.5964l59.767-35.858 67.278 67.278-35.869 59.767c3.679 7.5 6.874 15.227 9.576 23.128l67.627 16.901v95.122l-67.565 16.901c-2.733 7.973-5.949 15.72-9.627 23.21l35.827 59.716-67.278 67.278-59.726-35.838c-7.479 3.668-15.216 6.884-23.179 9.607l-16.891 67.565h-95.122l-16.901-67.565c-7.973-2.733-15.72-5.949-23.21-9.627l-59.716 35.827-67.278-67.278 35.838-59.726c-3.668-7.479-6.8839-15.216-9.6066-23.179l-67.565-16.891v-95.122l67.565-16.901c2.733-7.973 5.9489-15.72 9.6272-23.21l-35.827-59.716 67.278-67.278 59.726 35.838c7.479-3.668 15.216-6.8839 23.179-9.6066zm64.452 268.34c44.129 0 79.905-35.776 79.905-79.905s-35.776-79.905-79.905-79.905-79.905 35.776-79.905 79.905 35.776 79.905 79.905 79.905z" fill="#cccccc"/>
</svg>