<svg viewBox="0 0 512 512" xmlns="http://www.w3.org/2000/svg">
  <path d="m137.84 361.29c-0.678 0-1.531-0.226-2.558-0.678-1.017-0.452-2.086-1.017-3.216-1.695l-122.22-83.178c-3.1743-2.27-5.6089-4.479-7.3039-6.625-1.695-2.158-2.5374-4.818-2.5374-7.993v-10.509c0-3.4 0.84236-6.173 2.5374-8.32 1.695-2.147 4.1296-4.366 7.3039-6.637l122.22-83.177c1.13-0.452 2.199-0.904 3.216-1.356 1.027-0.452 1.88-0.678 2.558-0.678 2.044 0 3.739 0.626 5.095 1.88 1.356 1.243 2.034 2.876 2.034 4.91v36.673c0 3.627-1.027 6.4-3.061 8.331-2.034 1.921-4.181 3.555-6.441 4.911l-74.025 48.538 74.025 48.898c2.26 1.356 4.407 2.938 6.441 4.756 2.034 1.808 3.061 4.52 3.061 8.146v36.674c0 2.034-0.678 3.729-2.034 5.095-1.356 1.356-3.051 2.034-5.095 2.034zm42.775 42.087c-2.034 0-3.791-0.729-5.27-2.198-1.459-1.469-2.198-3.113-2.198-4.921 0-1.13 0.339-2.26 1.017-3.39l114.76-276.71c0.914-1.808 2.28-3.627 4.088-5.435 1.798-1.818 4.52-2.722 8.136-2.722h30.561c2.034 0 3.729 0.74 5.085 2.219 1.367 1.469 2.045 3.102 2.045 4.91 0 0.915-0.226 2.044-0.678 3.4l-115.43 276.72c-0.678 1.593-1.983 3.339-3.914 5.26-1.921 1.921-4.685 2.876-8.311 2.876h-29.883zm193.19-42.087c-1.798 0-3.39-0.678-4.756-2.034-1.356-1.366-2.034-3.061-2.034-5.095v-36.674c0-3.626 1.017-6.338 3.051-8.146 2.044-1.818 4.201-3.4 6.471-4.756l73.666-48.898-73.666-48.538c-2.27-1.356-4.427-2.99-6.471-4.911-2.034-1.931-3.051-4.704-3.051-8.331v-36.673c0-2.034 0.678-3.667 2.034-4.91 1.366-1.254 2.958-1.88 4.756-1.88 0.904 0 1.869 0.226 2.886 0.678 1.028 0.452 1.983 0.904 2.887 1.356l122.57 83.177c3.39 2.271 5.886 4.49 7.468 6.637s2.383 4.92 2.383 8.32v10.509c0 3.175-0.801 5.835-2.383 7.993-1.582 2.146-4.078 4.355-7.468 6.625l-122.57 83.178c-0.904 0.678-1.859 1.243-2.887 1.695-1.017 0.452-1.982 0.678-2.886 0.678z" fill="#cccccc"/>
</svg>