<svg viewBox="0 0 512 512" xmlns="http://www.w3.org/2000/svg">
  <path d="m305.1 251.63c-1.66-13.29-8.31-26.58-18.28-34.89l-171.17-136.23c-21.61-16.62-51.52-13.29-68.14 8.3-16.62 21.6-13.29 51.51 8.31 68.12l124.64 99.68-124.64 99.68c-21.6 16.62-24.93 46.52-8.31 68.12s46.53 24.92 68.14 8.31l171.17-139.56c11.64-9.97 18.28-23.26 18.28-38.21v-3.32z" fill="#0d55ff"/>
  <path d="m425.77 344.38h-147.9c-1.67 0-4.99 0-6.65 1.66l-111.35 88.06c-1.66 1.66-1.66 3.32 0 4.98 0 1.66 1.66 1.66 3.32 1.66h264.25c26.59 0 49.85-23.26 48.19-51.5-1.66-26.58-24.93-44.86-49.86-44.86z" fill="#00c9db"/>
  <path d="m475.63 392.56c0 26.58-21.6 48.18-48.19 48.18s-48.2-21.6-48.2-48.18 21.61-48.18 48.2-48.18 48.19 21.6 48.19 48.18z" fill="#7000f2"/>
</svg>