<svg viewBox="0 0 512 512" xmlns="http://www.w3.org/2000/svg">
  <path d="m342.8 26.96c2.88 0.43 8.04 1.33 11.44 2 3.4 0.69 9.52 2.19 13.59 3.35 4.06 1.16 10.18 3.21 13.58 4.55 3.41 1.34 8.35 3.43 10.97 4.65s7.02 3.49 9.77 5.04c2.76 1.54 8.01 4.82 11.68 7.29 3.67 2.46 8.72 6.1 11.2 8.08 2.49 1.98 7.39 6.41 10.9 9.85 3.5 3.43 8.23 8.38 10.51 11s5.55 6.59 7.27 8.82c1.71 2.23 4.14 5.66 5.4 7.63 1.27 1.96 3.26 5.18 4.43 7.15 1.17 1.96 3.2 5.72 4.52 8.34 1.31 2.62 2.52 4.87 2.7 5.01 0.18 0.13 1.2 2.28 2.29 4.76 1.09 2.49 2.72 6.47 3.63 8.82 0.89 2.36 2.53 7.4 3.63 11.21 1.08 3.8 2.72 10.55 3.6 15.01 0.9 4.47 1.98 11.65 2.41 15.98 0.62 6.09 0.75 10.6 0.55 20.02-0.18 8.31-0.56 14.26-1.21 18.83-0.53 3.67-1.53 9.25-2.23 12.39-0.71 3.15-2.04 8.4-2.93 11.68-0.91 3.28-2.73 8.86-4.05 12.4-1.33 3.54-3.86 9.44-5.61 13.11s-4.45 8.82-6 11.44c-1.53 2.62-4.44 7.24-6.45 10.25-2.02 3.02-5.47 7.73-7.67 10.48-2.19 2.76-7.64 8.68-12.1 13.18-4.46 4.49-10.25 9.86-12.87 11.93-2.62 2.06-6.59 5.05-8.82 6.63s-6.04 4.1-8.46 5.6c-2.43 1.5-7.04 4.1-10.25 5.8-3.21 1.68-8.42 4.18-11.56 5.54-3.15 1.35-9.16 3.59-13.35 4.97-4.2 1.39-11.06 3.28-15.26 4.22-4.19 0.92-9.99 2.02-12.87 2.43-2.88 0.4-7.61 0.94-10.49 1.21-2.88 0.26-8.88 0.48-13.35 0.47-4.46 0-10.67-0.22-13.82-0.49-3.15-0.26-9.05-1.02-13.11-1.69-4.06-0.66-10.82-2.08-15.02-3.13-4.19-1.07-10.2-2.86-13.35-4-3.14-1.13-8.83-3.44-12.63-5.14-3.81-1.69-9.27-4.36-12.16-5.92s-6-3.3-8.58-4.86l-26.95 26.9-0.48 3.34c-0.27 1.84-0.91 4.95-1.44 6.91-0.53 1.97-2.01 5.73-3.28 8.35-1.28 2.62-3.46 6.26-4.86 8.1s-19.7 20.59-40.69 41.67c-20.97 21.08-40.85 40.82-44.14 43.86-5.05 4.65-6.83 5.96-11.21 8.24-2.86 1.48-7.02 3.24-9.26 3.89-2.23 0.66-6.4 1.44-9.29 1.75-4.08 0.44-6.3 0.43-10.01-0.02-2.63-0.32-6.54-1.09-8.7-1.71-2.16-0.63-5.71-2.02-7.87-3.1s-5.22-2.88-6.79-4.01c-1.58-1.11-4.7-3.93-6.95-6.25-2.25-2.33-4.74-5.19-5.54-6.37s-2.34-3.92-3.42-6.07c-1.09-2.17-2.53-5.93-3.21-8.35-1-3.53-1.3-5.83-1.5-11.56-0.19-5.62-0.06-8.02 0.57-11.21 0.45-2.23 1.53-5.87 2.39-8.1 0.87-2.23 2.37-5.45 3.35-7.15 0.98-1.71 2.7-4.28 3.84-5.72 1.12-1.44 21.21-21.74 44.64-45.11 25.46-25.4 43.83-43.37 45.68-44.66 1.71-1.19 5.03-3.08 7.39-4.19 2.35-1.1 6.33-2.52 8.82-3.15s5.62-1.3 9.39-1.82l26.78-27.17-1.69-2.86c-0.95-1.57-3.3-5.97-5.24-9.77-1.93-3.81-4.61-9.71-5.95-13.11-1.34-3.41-3.06-8.02-3.82-10.25-0.76-2.24-2.01-6.53-2.79-9.54-0.76-3.01-1.72-7.09-2.13-9.06-0.42-1.96-1.17-6.37-1.68-9.77s-1.14-9.2-1.41-12.87c-0.28-3.67-0.5-9.25-0.5-12.4 0-3.14 0.33-9.15 0.73-13.35 0.4-4.19 1.05-9.66 1.44-12.15 0.4-2.49 1.5-7.86 2.44-11.92 0.93-4.06 2.46-9.64 3.36-12.4 0.92-2.75 2.69-7.58 3.93-10.72 1.25-3.15 3.67-8.51 5.38-11.92 1.71-3.42 4.23-8.13 5.63-10.49 1.38-2.35 4.18-6.76 6.22-9.77 2.04-3.02 4.86-6.91 6.25-8.64 1.39-1.74 4.93-5.82 7.87-9.06 2.95-3.25 7.98-8.3 11.21-11.25 3.22-2.94 7.57-6.67 9.67-8.3 2.09-1.62 7.03-5.07 10.96-7.66 3.94-2.6 11.12-6.71 15.97-9.15 4.85-2.43 11.07-5.3 13.83-6.36 2.75-1.08 8.17-2.94 12.04-4.14 3.86-1.2 9.87-2.82 13.35-3.58 3.47-0.76 8.56-1.72 11.32-2.15 2.75-0.42 6.61-0.96 8.58-1.2 1.96-0.24 10.11-0.36 18.11-0.27 10.16 0.11 16.13 0.4 19.79 0.93zm-48.63 51.53c-2.62 0.62-7.02 1.87-9.77 2.77-2.76 0.91-7.26 2.62-10.01 3.8-2.76 1.19-7.05 3.28-9.54 4.65s-6.67 3.96-9.3 5.74c-2.62 1.78-6.58 4.7-8.81 6.48-2.23 1.79-5.53 4.64-7.33 6.35-1.81 1.7-5.28 5.56-7.71 8.58-2.43 3.01-6.01 7.83-7.94 10.72s-4.82 7.82-6.42 10.97c-1.61 3.14-4.01 8.62-5.33 12.15-1.33 3.54-3.06 9.12-3.87 12.4-0.8 3.28-1.89 8.86-2.41 12.4-0.69 4.67-0.95 8.98-0.96 15.73-0.01 5.11 0.2 11.33 0.47 13.82s0.69 5.71 0.92 7.15c0.25 1.44 0.99 4.77 1.65 7.39 0.67 2.63 1.89 6.81 2.72 9.3 0.84 2.49 2.48 6.78 3.65 9.53 1.18 2.76 3.44 7.26 5.02 10.02 1.58 2.75 3.95 6.61 5.25 8.58 1.32 1.96 4.13 5.8 6.26 8.52 2.12 2.72 6.01 7.01 8.64 9.54 2.63 2.52 6.38 5.89 8.35 7.48 1.96 1.59 4.85 3.76 6.42 4.82 1.58 1.05 4.79 3.1 7.15 4.55 2.37 1.45 5.58 3.28 7.16 4.07 1.57 0.79 4.9 2.28 7.39 3.34 2.48 1.05 7.32 2.81 10.72 3.88 3.41 1.09 8.88 2.49 12.16 3.13 3.28 0.63 8.86 1.4 12.39 1.72 3.93 0.35 9.41 0.45 14.07 0.26 4.19-0.16 9.71-0.62 12.28-1.02 2.55-0.39 6.73-1.16 9.3-1.7 2.55-0.56 7.54-1.96 11.07-3.13 3.56-1.17 10.07-3.9 14.55-6.1 4.46-2.19 10.24-5.43 12.87-7.19 2.62-1.77 6.69-4.76 9.06-6.65 2.36-1.89 6.55-5.67 9.32-8.4s6.47-6.79 8.24-9.02c1.76-2.23 4.57-6.09 6.22-8.58 1.66-2.49 4-6.35 5.2-8.58 1.21-2.23 3.15-6.2 4.31-8.82s2.91-7.02 3.86-9.77c0.97-2.76 2.38-7.8 3.14-11.21 0.76-3.4 1.73-8.87 2.16-12.15 0.61-4.66 0.74-8.37 0.54-16.93-0.16-6.94-0.54-12.62-1.03-15.49-0.44-2.49-1.22-6.35-1.74-8.58s-1.91-6.95-3.1-10.49-3.49-9.23-5.12-12.63c-1.64-3.41-4.13-8.14-5.53-10.49-1.41-2.36-4.4-6.76-6.65-9.78-2.25-3.01-6.24-7.71-8.86-10.43s-6.81-6.66-9.3-8.75c-2.48-2.08-7.1-5.52-10.25-7.63-3.14-2.11-9.04-5.48-13.11-7.47-4.06-2.01-10.07-4.53-13.35-5.64-3.28-1.1-8.1-2.52-10.72-3.15-2.62-0.64-6.16-1.4-7.87-1.69-1.7-0.29-5.35-0.75-8.1-1-2.76-0.27-8.44-0.45-12.64-0.41-4.19 0.04-8.27 0.15-9.05 0.25-0.79 0.1-3.8 0.51-6.68 0.92s-7.39 1.25-10.01 1.87zm25.27 97.02c54.21 0 56.81 0.04 58.64 0.89 1.04 0.49 2.48 1.5 3.19 2.25s1.62 2.18 2.02 3.17c0.6 1.44 0.75 3.94 0.75 12.98s-0.15 11.55-0.75 13c-0.4 0.98-1.31 2.4-2.02 3.16-0.71 0.75-2.15 1.76-3.19 2.25-1.83 0.84-4.43 0.88-58.64 0.88-54.22 0-56.82-0.04-58.64-0.88-1.05-0.49-2.49-1.5-3.2-2.25-0.7-0.76-1.62-2.18-2.02-3.16-0.6-1.45-0.74-3.96-0.74-13s0.14-11.54 0.74-12.98c0.4-0.99 1.32-2.42 2.02-3.17 0.71-0.75 2.15-1.76 3.2-2.25 1.82-0.85 4.42-0.89 58.64-0.89z" fill="#c7022b"/>
</svg>