<svg viewBox="0 0 512 512" xmlns="http://www.w3.org/2000/svg">
  <path d="m475.25 104.96c-26.59-59.1-62.05-60.57-70.92-54.66-10.34 4.43-363.45 202.41-375.27 212.75s-11.82 33.98-1.48 53.19 28.07 29.55 36.94 26.59c4.43-1.47 67.96-22.16 144.79-45.8l-72.4 101.95c-4.43 7.39-2.95 16.25 2.96 20.68 7.38 4.44 16.25 2.96 20.68-2.95l65.01-90.13v124.11c0 8.86 7.39 14.77 14.78 14.77 8.86 0 14.77-7.38 14.77-14.77v-124.11l65.01 90.13c4.43 7.39 14.77 8.86 20.68 2.95s8.87-14.77 2.96-20.68l-84.22-118.2c103.43-33.98 209.8-67.96 217.19-72.4 16.25-10.34 26.6-44.32-1.48-103.42z"/>
</svg>