<svg viewBox="0 0 512 512" xmlns="http://www.w3.org/2000/svg">
  <defs>
    <linearGradient id="gradient" x1="342.59" x2="61.948" y1="242.9" y2="262.54" gradientUnits="userSpaceOnUse">
      <stop stop-color="#c2126f" offset="0"/>
      <stop stop-color="#c2126f" offset="0.124"/>
      <stop stop-color="#e51a34" offset="0.574"/>
      <stop stop-color="#f0431e" offset="0.974"/>
      <stop stop-color="#f0431e" offset="1"/>
    </linearGradient>
  </defs>
  <path d="m174.02 81.24c0.5 0.14 1.3 0.59 1.79 1.03 0.48 0.44 1.05 1.11 1.26 1.51 0.36 0.67 0.4 5.21 0.4 104.71l-0.61 1.05c-0.37 0.65-1.01 1.31-2.78 2.34l-12.71 0.07c-7.94 0.03-13.04-0.03-13.61-0.19-0.5-0.13-1.3-0.6-1.78-1.03-0.47-0.43-1.04-1.27-1.26-1.87-0.38-1.02-0.41-4.87-0.41-52.36 0-47.88 0.03-51.34 0.42-52.35 0.22-0.6 0.71-1.39 1.08-1.74 0.38-0.37 1.11-0.83 1.65-1.02 0.8-0.3 3.07-0.36 13.31-0.38 7.46-0.01 12.7 0.09 13.25 0.23zm182.1-0.24c10.62-0.01 12.5 0.04 13.43 0.37 0.6 0.21 1.34 0.62 1.66 0.91 0.31 0.29 0.8 0.97 1.09 1.5 0.51 0.95 0.52 1.24 0.59 12 0.05 7.26-0.02 11.44-0.2 12.24-0.14 0.66-0.5 1.57-0.79 2.01s-1.07 1.06-2.95 1.99l-12.96-0.05c-12.6-0.07-12.97-0.08-13.91-0.57-0.6-0.32-1.24-0.95-2.42-2.85l-0.07-11.42c-0.06-9.49-0.01-11.61 0.29-12.62 0.21-0.71 0.69-1.53 1.15-2 0.45-0.43 1.24-0.95 1.77-1.14 0.8-0.29 3.16-0.36 13.32-0.37zm14.04 45c0.53 0.28 1.14 0.71 1.36 0.96s0.59 0.84 0.85 1.3c0.43 0.82 0.45 2.56 0.52 51.86 0.04 35.38-0.02 51.4-0.2 52.24-0.14 0.66-0.5 1.57-0.79 2.01-0.29 0.43-1.07 1.06-2.95 1.99l-12.96-0.06c-12.6-0.07-12.97-0.08-13.91-0.57-0.6-0.32-1.24-0.95-2.42-2.85l-0.08-51.16c-0.06-39.52-0.01-51.46 0.22-52.49 0.23-1.05 0.53-1.55 1.35-2.36 0.71-0.71 1.37-1.11 2.08-1.25 0.56-0.13 6.63-0.2 13.49-0.18 12.25 0.03 12.49 0.04 13.44 0.56zm-259.87 2.91c0.6 0.3 1.33 0.84 1.61 1.22 0.28 0.37 0.64 1.11 0.8 1.65 0.21 0.7 0.27 4.14 0.14 24.51l-0.62 0.95c-0.39 0.59-1.07 1.18-3.01 2.16l-12.1 0.07c-8.46 0.05-12.51-0.01-13.44-0.2-1.04-0.23-1.55-0.51-2.33-1.29-0.59-0.58-1.11-1.4-1.28-1.97-0.17-0.65-0.26-4.68-0.26-12.12 0-6.61 0.1-11.51 0.24-12.05 0.13-0.51 0.54-1.25 0.91-1.67 0.36-0.42 0.99-0.93 1.39-1.14s1.1-0.45 1.57-0.54c0.46-0.11 6.35-0.17 13.07-0.15 12.07 0.04 12.24 0.05 13.31 0.57zm125.28-0.53 1.07 0.61c0.6 0.33 1.34 0.99 1.65 1.45 0.31 0.47 0.67 1.23 0.79 1.7 0.14 0.48 0.24 5.6 0.24 11.75 0 7.14-0.09 11.24-0.27 11.88-0.14 0.53-0.53 1.33-0.85 1.75-0.32 0.44-1.03 1.04-1.61 1.34-1.01 0.54-1.11 0.54-13.13 0.61-7.55 0.05-12.55-0.02-13.31-0.17-0.67-0.14-1.6-0.5-2.06-0.8-0.5-0.32-1.1-1.05-2.05-2.97v-23.27l0.6-1.19c0.34-0.66 0.94-1.41 1.33-1.69 0.4-0.28 1.21-0.64 1.81-0.8 0.82-0.22 4.29-0.29 25.79-0.2zm71.47 0.11c0.63 0.14 1.53 0.5 1.99 0.81 0.47 0.31 1.12 1.04 2.06 2.72v103.49l-0.61 1.2c-0.36 0.73-0.96 1.43-2.49 2.44h-26.95l-1.01-0.67c-0.57-0.38-1.25-1.12-2.1-2.73v-51.87c0-50.2 0.01-51.89 0.46-52.71 0.24-0.47 0.62-1.05 0.84-1.3 0.22-0.24 0.72-0.61 1.12-0.81 0.4-0.21 1.16-0.46 1.7-0.57 0.53-0.09 6.1-0.19 12.4-0.21 6.71-0.01 11.91 0.08 12.59 0.21zm127.38 0.28c0.48 0.21 1.2 0.78 1.64 1.27 0.43 0.49 0.9 1.29 1.02 1.8 0.15 0.54 0.25 5.5 0.25 12.29-0.01 10.49-0.04 11.48-0.45 12.37-0.24 0.53-0.81 1.3-1.27 1.71-0.51 0.47-1.3 0.85-2.09 1.03-0.88 0.2-4.82 0.29-12.83 0.28-7.04 0-11.99-0.11-12.65-0.25-0.59-0.14-1.45-0.5-1.88-0.79-0.44-0.29-1.07-1.07-2-2.95l0.01-11.64c0-10.71 0.04-11.71 0.45-12.6 0.24-0.54 0.83-1.32 1.33-1.76 0.52-0.46 1.25-0.84 1.79-0.93 0.5-0.08 1.01-0.17 1.15-0.22 0.13-0.06 5.74-0.07 12.46-0.05 10.59 0.05 12.35 0.11 13.07 0.44zm-324.24 44.54c0.53 0.24 1.27 0.78 1.63 1.2s0.78 1.18 0.91 1.68c0.18 0.62 0.24 17.22 0.12 104.44l-0.62 0.95c-0.39 0.59-1.07 1.18-3.01 2.16l-12.1 0.08c-8.46 0.03-12.51-0.02-13.44-0.22-1.04-0.22-1.55-0.5-2.33-1.29-0.59-0.58-1.11-1.39-1.28-1.96-0.19-0.7-0.27-15.36-0.27-52.11 0-38.03 0.07-51.36 0.27-51.99 0.16-0.46 0.54-1.22 0.83-1.67 0.32-0.46 0.98-0.99 1.6-1.26 0.99-0.42 1.89-0.45 13.89-0.45 11.85 0 12.9 0.03 13.8 0.44zm126.92 0.34c0.56 0.36 1.25 1.12 2.1 2.72l0.07 51.27c0.05 36.9-0.01 51.56-0.21 52.34-0.14 0.6-0.53 1.45-0.85 1.88s-1.04 1.04-1.62 1.34c-1.01 0.54-1.11 0.55-13.13 0.62-7.51 0.03-12.56-0.03-13.31-0.19-0.67-0.13-1.6-0.49-2.06-0.79-0.5-0.32-1.1-1.06-2.05-2.98v-103.25l0.52-1.09c0.29-0.6 0.83-1.3 1.21-1.57s1.02-0.61 1.41-0.78c0.54-0.21 4.2-0.27 26.91-0.19l1.01 0.67zm183.65-0.78c11.85 0 12.9 0.03 13.8 0.44 0.53 0.24 1.27 0.78 1.63 1.2s0.78 1.18 0.9 1.68c0.16 0.59 0.25 18.99 0.25 52.29-0.01 49.12-0.03 51.42-0.45 52.35-0.24 0.54-0.81 1.31-1.27 1.72-0.51 0.46-1.3 0.85-2.09 1.03-0.88 0.2-4.82 0.28-12.83 0.27-7.04 0-11.99-0.09-12.65-0.25-0.59-0.13-1.45-0.48-1.88-0.78-0.44-0.29-1.07-1.08-2-2.96v-51.57c0-46.09 0.04-51.65 0.38-52.47 0.21-0.5 0.62-1.17 0.91-1.48 0.29-0.32 0.97-0.78 1.5-1.02 0.9-0.42 1.83-0.45 13.8-0.45zm-259.98 32.49c7.46-0.01 12.7 0.07 13.25 0.22 0.5 0.13 1.3 0.6 1.79 1.03 0.48 0.43 1.05 1.11 1.26 1.52 0.35 0.63 0.4 2.11 0.4 12.72 0 11.97 0 12-0.54 13.02-0.3 0.57-0.85 1.24-1.21 1.48-0.37 0.25-1.06 0.57-1.52 0.73-0.6 0.2-4.45 0.28-13.43 0.28-11.63-0.01-12.67-0.05-13.56-0.45-0.53-0.25-1.32-0.84-1.75-1.33s-0.87-1.3-0.97-1.8-0.18-5.93-0.18-12.06c0-9.95 0.04-11.26 0.42-12.24 0.22-0.6 0.71-1.38 1.08-1.74 0.38-0.36 1.11-0.82 1.65-1.02 0.8-0.29 3.07-0.35 13.31-0.36zm147.42 47.8c0.53 0.24 1.17 0.62 1.41 0.84 0.25 0.23 0.69 0.85 0.97 1.39 0.51 0.95 0.52 1.16 0.52 24.72l-0.61 1.08c-0.33 0.59-0.98 1.33-1.45 1.64-0.46 0.31-1.36 0.67-1.99 0.79-0.66 0.15-5.97 0.24-12.53 0.24s-11.86-0.09-12.52-0.24c-0.64-0.12-1.54-0.48-2.01-0.79-0.46-0.31-1.11-1.05-2.05-2.72v-11.88c0-11.14 0.03-11.92 0.46-12.73 0.24-0.46 0.62-1.04 0.84-1.29s0.72-0.61 1.12-0.82c0.4-0.2 1.16-0.45 1.7-0.56 0.53-0.11 6.41-0.17 13.07-0.15 11.1 0.03 12.18 0.07 13.07 0.48zm-215.25 39.5c58.08 0.07 65.34 0.13 68.8 0.48 2.13 0.22 5.51 0.63 7.5 0.9 2.01 0.28 4.83 0.74 6.3 1.01s4.35 0.91 6.42 1.42c2.06 0.51 5.03 1.32 6.59 1.79 1.57 0.49 4.35 1.43 6.18 2.11 1.83 0.69 4.68 1.84 6.35 2.57 1.66 0.71 4.76 2.24 6.89 3.39 2.13 1.14 5.35 3.06 7.15 4.26 1.79 1.2 4.13 2.86 5.2 3.7 1.06 0.82 2.94 2.39 6.42 5.45h58.82l2.36-2.13c1.3-1.17 3.23-2.79 4.29-3.59 1.07-0.82 3.08-2.24 4.49-3.18 1.39-0.94 3.63-2.33 4.95-3.1 1.34-0.76 3.59-1.98 5.03-2.7 1.43-0.72 4.15-1.97 6.05-2.78s5.68-2.23 8.41-3.14c2.73-0.9 6.76-2.08 8.96-2.62s5.46-1.25 7.26-1.58c1.79-0.33 5.07-0.82 7.26-1.1 2.2-0.27 5.3-0.62 6.9-0.79 2.13-0.2 20.43-0.3 134.23-0.44l-0.11 8.54c-0.05 4.7-0.11 8.68-0.11 8.85-0.02 0.23-1.52 0.3-13.34 0.3v11.39h-24.44l-0.01 52.66c0 32.14-0.1 53.03-0.24 53.62-0.12 0.53-0.43 1.25-0.67 1.58-0.26 0.33-0.84 0.85-1.28 1.16-0.46 0.31-1.27 0.69-1.8 0.85-0.74 0.23-11.45 0.29-45.39 0.29-40.67 0-44.76-0.03-48.54-0.42-2.25-0.23-5.9-0.7-8.1-1.02s-5.79-0.97-7.99-1.44c-2.2-0.48-5.52-1.3-7.39-1.82-1.86-0.53-4.69-1.41-6.29-1.97-1.6-0.55-4.26-1.56-5.93-2.23-1.66-0.67-4.33-1.84-5.93-2.6-1.6-0.75-4.21-2.12-5.81-3.03s-4.05-2.42-5.44-3.36c-1.41-0.94-3.47-2.4-4.6-3.25s-3.3-2.67-4.82-4.02c-1.52-1.36-3.87-3.67-5.21-5.14s-3.22-3.71-4.17-4.97-2.37-3.33-3.17-4.6-1.95-3.31-2.57-4.54c-0.62-1.24-1.5-3.15-1.95-4.24-0.45-1.1-1.1-2.88-1.44-3.94-0.34-1.07-0.89-3.03-1.21-4.37-0.33-1.33-0.74-3.23-0.92-4.24-0.22-1.23-0.32-3.93-0.32-8.36 0.01-5.87 0.07-6.84 0.58-9.46 0.31-1.59 0.61-3.2 0.75-4.24h-23.72l0.11 0.55c0.07 0.31 0.34 1.58 0.6 2.85s0.6 3.56 0.76 5.09c0.17 1.67 0.23 4.49 0.15 7.02-0.07 2.68-0.32 5.33-0.64 7.16-0.28 1.6-0.84 4.11-1.24 5.57-0.41 1.47-1.13 3.71-1.6 4.97-0.48 1.27-1.5 3.59-2.29 5.16-0.78 1.55-1.98 3.74-2.66 4.84s-2.14 3.2-3.23 4.66c-1.1 1.47-3.07 3.82-4.38 5.21-1.32 1.41-3.43 3.51-4.7 4.68s-3.35 2.93-4.61 3.91c-1.26 0.97-3.61 2.65-5.21 3.71-1.59 1.07-3.77 2.43-4.84 3.03-1.06 0.6-3.35 1.8-5.08 2.67-1.72 0.88-4.45 2.12-6.05 2.79s-4.13 1.67-5.63 2.21c-1.5 0.55-4.38 1.48-6.41 2.07s-5.17 1.42-6.96 1.84c-1.8 0.42-4.79 1.03-6.66 1.34-1.86 0.31-4.7 0.73-6.29 0.94-1.6 0.2-4.43 0.51-6.3 0.68-2.62 0.24-13.28 0.31-47.56 0.31-43.23 0-44.21-0.01-45.51-0.47-0.73-0.26-1.68-0.83-2.12-1.28-0.44-0.43-0.89-1.2-1.03-1.7-0.15-0.59-0.24-19.51-0.24-106.71h-24.45v-11.39h-12.1l0.02-17.71 64.92 0.09zm66.38 108.04c2.26-0.26 5.48-0.76 7.14-1.11 1.67-0.36 4.28-1.03 5.81-1.49s3.68-1.22 4.79-1.68c1.09-0.45 3.06-1.35 4.35-2.01 1.3-0.65 3.56-1.97 5.02-2.94 1.87-1.24 3.54-2.66 5.59-4.71 1.92-1.93 3.39-3.66 4.32-5.1 0.78-1.2 1.84-3.05 2.38-4.12 0.53-1.07 1.32-3.03 1.76-4.36 0.43-1.34 0.97-3.57 1.19-4.97 0.24-1.5 0.41-3.94 0.41-5.94 0-1.86-0.13-4.21-0.29-5.21-0.14-1-0.49-2.69-0.76-3.76-0.26-1.07-0.81-2.75-1.21-3.76-0.4-1-1.04-2.41-1.4-3.15-0.38-0.73-1.33-2.31-2.12-3.51s-2.3-3.1-3.36-4.21c-1.05-1.13-2.67-2.67-3.61-3.42-0.93-0.77-2.45-1.88-3.39-2.49-0.93-0.6-2.83-1.7-4.23-2.45-1.4-0.73-3.85-1.85-5.45-2.47s-4.53-1.54-6.53-2.04c-2-0.51-4.67-1.1-5.93-1.31-1.27-0.21-3.91-0.55-5.87-0.75-2.92-0.3-7.64-0.37-25.84-0.37h-22.27v77.8c43.61 0 45.71-0.04 49.5-0.47zm185.3-75.48c-1.53 0.35-4.2 1.08-5.93 1.65-1.72 0.59-4.29 1.55-5.68 2.18-1.41 0.63-3.53 1.72-4.73 2.42-1.19 0.71-3.1 1.99-4.23 2.83-1.13 0.85-3.04 2.53-4.24 3.73-1.23 1.25-2.87 3.23-3.78 4.62-0.88 1.32-1.98 3.17-2.45 4.11-0.47 0.93-1.2 2.67-1.62 3.88-0.42 1.2-0.99 3.27-1.28 4.6-0.42 1.97-0.53 3.28-0.53 6.91-0.01 3.39 0.1 5.01 0.43 6.66 0.24 1.2 0.77 3.22 1.17 4.48 0.41 1.27 1.23 3.3 1.83 4.5 0.6 1.19 1.64 2.99 2.31 3.99 0.66 1 1.83 2.52 2.56 3.38 0.75 0.86 2.24 2.33 3.31 3.27 1.08 0.95 2.88 2.34 4 3.1 1.13 0.75 3.18 1.97 4.58 2.7s3.63 1.76 4.96 2.29c1.34 0.53 3.79 1.37 5.45 1.85 1.67 0.49 4.49 1.15 6.3 1.48 1.79 0.32 4.19 0.72 5.32 0.87 1.4 0.19 9.7 0.31 25.96 0.36l23.91 0.09v-77.8c-34.06 0.06-45.19 0.16-46.72 0.27-1.53 0.12-3.98 0.38-5.45 0.59-1.47 0.2-3.92 0.65-5.45 0.99zm-175.79 18.63c1 0.22 2.18 0.71 3.07 1.29 0.81 0.5 1.86 1.4 2.35 2 0.49 0.59 1.2 1.72 1.58 2.53 0.61 1.3 0.67 1.71 0.67 4 0 2.38-0.04 2.66-0.76 4.12-0.43 0.86-1.2 2.06-2.69 3.75l-0.02 2.43c-0.01 1.56-0.2 3.11-0.51 4.36-0.27 1.06-0.94 2.86-1.51 3.99-0.84 1.7-1.46 2.51-3.45 4.52-2.12 2.14-2.72 2.59-4.73 3.57-1.37 0.67-3.18 1.32-4.48 1.61-1.19 0.26-2.89 0.48-3.75 0.48-0.87 0-2.28-0.11-3.15-0.25-0.87-0.15-2.33-0.53-3.27-0.86-0.93-0.32-2.4-0.99-3.26-1.47-0.97-0.54-2.42-1.72-3.78-3.08-1.92-1.94-2.35-2.52-3.43-4.76-0.67-1.39-1.41-3.36-1.62-4.35-0.22-1-0.4-2.75-0.4-3.89 0.01-1.13 0.17-2.87 0.36-3.87 0.18-1 0.64-2.53 1.01-3.4 0.35-0.86 1.04-2.17 1.51-2.9 0.47-0.74 1.52-2.03 2.33-2.88s2.13-1.98 2.92-2.53c0.81-0.54 2.12-1.29 2.91-1.66 0.8-0.38 2.49-0.91 3.76-1.19 1.85-0.42 2.77-0.49 4.71-0.38 1.34 0.08 2.97 0.3 3.63 0.48 1.06 0.29 1.28 0.29 1.7-0.02 0.27-0.2 1.03-0.62 1.69-0.94 0.67-0.31 1.71-0.67 2.31-0.79 0.6-0.13 1.44-0.23 1.87-0.25 0.43-0.01 1.52 0.13 2.43 0.34zm202.12 0c1.01 0.22 2.19 0.71 3.08 1.29 0.8 0.5 1.86 1.4 2.34 2 0.5 0.59 1.2 1.72 1.58 2.53 0.61 1.3 0.68 1.71 0.68 4 0 2.38-0.05 2.66-0.76 4.12-0.43 0.86-1.21 2.06-2.7 3.75l-0.02 2.43c-0.01 1.56-0.19 3.11-0.5 4.36-0.27 1.06-0.95 2.86-1.51 3.99-0.84 1.7-1.46 2.51-3.46 4.52-2.12 2.14-2.72 2.59-4.72 3.57-1.38 0.67-3.19 1.32-4.48 1.61-1.2 0.26-2.89 0.48-3.75 0.48-0.87 0-2.29-0.11-3.15-0.25-0.87-0.15-2.33-0.53-3.27-0.86-0.93-0.32-2.4-0.99-3.26-1.47-0.98-0.55-2.42-1.72-3.78-3.08-1.84-1.85-2.37-2.58-3.33-4.52-0.62-1.25-1.35-3.17-1.62-4.24-0.31-1.23-0.49-2.73-0.49-4.11 0-1.2 0.15-3 0.35-4 0.18-1 0.63-2.53 1-3.4 0.36-0.86 1.05-2.17 1.51-2.9 0.48-0.74 1.52-2.03 2.34-2.88 0.81-0.85 2.13-1.98 2.92-2.53 0.8-0.54 2.11-1.29 2.91-1.66 0.8-0.38 2.48-0.91 3.75-1.19 1.85-0.42 2.77-0.49 4.72-0.38 1.33 0.08 2.97 0.3 3.63 0.48 1.05 0.29 1.28 0.29 1.69-0.02 0.27-0.2 1.04-0.62 1.7-0.94 0.67-0.31 1.7-0.67 2.3-0.79 0.6-0.13 1.45-0.23 1.88-0.25 0.43-0.01 1.52 0.13 2.42 0.34z" fill="url(#gradient)"/>
</svg>